<svg id="Layer_1" data-name="Layer 1" xmlns="http://www.w3.org/2000/svg" viewBox="0 0 560.9 559.33"><defs><style>.cls-1{fill:#3ebd01;}.cls-2{fill:#3ebd02;}.cls-3{fill:#3fbd03;}.cls-4{fill:#42be07;}.cls-5{fill:#44bf0a;}.cls-6{fill:#44bf09;}.cls-7{fill:#43be08;}.cls-8{fill:#43be09;}.cls-9{fill:#48c00e;}</style></defs><title>crosshair-logo</title><path class="cls-1" d="M619.41,213.25c-10.33-2.13-20.41-5-30.68-6.17-29.26-3.4-55.84,4-78.59,22.82-23.29,19.28-35.44,44.67-38.39,74.61-3.19,32.42,4.52,61.72,25.46,86.95,17.9,21.56,41,33.84,69,36.85,26.48,2.84,50.95-2.62,72.92-17.77A101.36,101.36,0,0,0,671.92,373c.3-.58.69-1.1,1.42-2.28l44.76,71.76c-8.64,7.34-16.79,15.18-25.84,21.78-31.5,23-67,34.45-105.91,36.08-35.28,1.49-68.93-4.6-100.06-21.22-53.57-28.6-85.23-73.31-94.41-133.43-5.73-37.44-.57-73.63,15.9-107.77s41.44-60.38,74.49-78.88c28.11-15.74,58.39-23.48,90.53-24.06a4.59,4.59,0,0,1,3.5,1.72q21.51,37.66,42.77,75.48A4.14,4.14,0,0,1,619.41,213.25Z" transform="translate(-389.63 -105.26)"/><path class="cls-2" d="M865.07,359.49c7.29,10.23,14.3,20.1,21.33,29.95,14.38,20.16,28.83,40.28,43.07,60.53a13.83,13.83,0,0,1,2.25,7.25c.22,12.3.1,24.6.1,37.6H915.18c-7.66,0-15.33-.19-23,.09-3.64.13-5.79-1.17-7.7-4.16C862.32,455.83,839.94,421,817.8,386.1c-14.33-22.61-28.34-45.4-42.49-68.12-.5-.8-.92-1.64-1.85-3.32,2.53,0,4.27,0,6,0,16.27-.46,32.64,0,48.79-1.64,20.37-2.09,38.47-10,49.74-28.29,18-29.27,10-77.13-35.89-87.52a141.74,141.74,0,0,0-29-3.56c-28.82-.46-57.64-.21-86.47-.11-3.17,0-5-.78-6.62-3.77-9.5-17.14-19.33-34.11-29-51.15a25.57,25.57,0,0,1-1-2.41h4.71c41.49,0,83-.41,124.46.14,29,.39,57.13,5.35,82.41,21,27,16.75,42.61,41.13,47.21,72.19,3.78,25.59,1.71,50.77-10.5,74.26S906.87,343,882.74,353C877.23,355.24,871.54,357.11,865.07,359.49Z" transform="translate(-389.63 -105.26)"/><path class="cls-3" d="M839.31,511.17l-20.37-10c.58,10.14,1.1,19.44,1.63,28.74l-.69.39c-2.68-4.9-5.41-9.77-8-14.7q-21-39.42-41.94-78.86Q740.11,380.86,710.27,325c-14.46-27.16-28.8-54.39-43.25-81.55Q640.18,193,613.25,142.61a7.55,7.55,0,0,0-.7-1.32c-8.78-11.09-7.73-23.2-3.38-36,6.13,2.76,12.49,5.48,18.69,8.53,1.31.65,2.24,2.38,3,3.8q29.29,55.07,58.51,110.18,41,77.1,82,154.17,32.7,61.43,65.46,122.84c1,1.9,2.07,3.77,3.11,5.65Z" transform="translate(-389.63 -105.26)"/><path class="cls-4" d="M592.26,663.9c-17.44,0-31-12.69-30.72-29.71.29-17.85,12.67-30.48,30.64-30.5,17.32,0,29.93,11.24,30.73,29.82C623.65,650.48,609.77,663.9,592.26,663.9Zm19.68-29.7c0-12.31-8.48-21.35-20-21.34-11,0-20,9-19.85,20.66.18,13.3,10.16,21.65,20.31,21.26C603.81,654.34,611.93,646.19,611.94,634.2Z" transform="translate(-389.63 -105.26)"/><path class="cls-5" d="M742,605.06h9.54v23.41h28.21v-23.4h9.71v57.74h-9.53V639.1H751.72V663H742Z" transform="translate(-389.63 -105.26)"/><path class="cls-4" d="M800.39,662.77c7.85-17.82,15.44-35.16,23.15-52.43,1.16-2.6,1-6.18,5.67-6.37s7,1.19,8.82,5.59c6.76,16.27,14,32.34,21,48.5.65,1.49,1.17,3.05,1.77,4.62-9.77,1.45-10.28,1.63-13.3-7.17-1.88-5.49-4.65-7-10.07-6.55a139.55,139.55,0,0,1-17,.06c-2.69-.08-4.5.51-5.16,3.38a21.32,21.32,0,0,1-1.4,3.19C810.43,663.81,810.44,663.82,800.39,662.77Zm40.42-23-10.18-23.72-10,23.72Z" transform="translate(-389.63 -105.26)"/><path class="cls-6" d="M636.19,648.62c6.28,2.33,11.55,4.69,17.07,6.12a11.85,11.85,0,0,0,8.11-1.14c2.06-1.17,4.19-4,4.33-6.25.12-2-2-4.79-4-6-2.75-1.69-6.2-2.27-9.38-3.25-2.54-.79-5.18-1.28-7.66-2.21-8.47-3.14-12.2-8.89-11.3-17.11.79-7.3,7-13.4,14.89-14.64,9.46-1.48,17.78.71,26.1,7.09L670,617.37c-6.36-1.62-12-3.48-17.71-4.35a7.38,7.38,0,0,0-8.69,5.86c-1,4.45,2.33,6.7,5.92,8,4.36,1.57,8.93,2.58,13.34,4,10.65,3.49,14.11,8.51,13.09,18.67-.76,7.44-7.64,13.48-16.93,14.25a36.55,36.55,0,0,1-23.33-5.54c-3.71-2.37-5.25-4.44-1.19-7.76A12.34,12.34,0,0,0,636.19,648.62Z" transform="translate(-389.63 -105.26)"/><path class="cls-6" d="M684,654.53l5-5.92c6.23,2.29,11.62,4.87,17.3,6.13,2.9.64,6.6-.49,9.45-1.84a6.09,6.09,0,0,0,.41-10.6c-2.79-1.69-6.08-2.56-9.21-3.6s-6.44-1.68-9.54-2.83c-8.4-3.13-12.15-9-11.2-17.15.85-7.24,7.13-13.53,14.94-14.53,9.4-1.22,18.13.51,26.12,7l-4.45,6.19c-6.36-1.63-11.94-3.49-17.68-4.37a7.42,7.42,0,0,0-8.73,5.8c-1,4.43,2.27,6.71,5.86,8,4.36,1.57,8.91,2.59,13.32,4,10.61,3.48,13.94,8.1,13.21,18.07-.55,7.6-6.35,13.39-15.81,14.66C702.23,665.05,692.48,662.34,684,654.53Z" transform="translate(-389.63 -105.26)"/><path class="cls-4" d="M511.72,643.08l7,11.52c-10.32,9.32-21.79,11.77-34.42,7.5-11-3.72-17.65-11.7-19.29-23.24-1.94-13.7,3.19-24.45,15.18-31.37,3.47-2,7.78-2.75,11.81-3.44,1.41-.25,3.68,1,4.62,2.24a72.73,72.73,0,0,1,4.86,8.42c-4.94,1-10.17,1.34-14.8,3.17-5.28,2.1-7.59,7.27-8.6,12.67-1.54,8.25,2.83,17,9.78,20.09C496.67,654.61,504.31,652.32,511.72,643.08Z" transform="translate(-389.63 -105.26)"/><path class="cls-7" d="M553.8,662.73c-4.48,1.44-7.26,0-9.53-3.93-4.85-8.46-10.13-16.68-15.69-25.76,3.36,0,5.95.17,8.51,0,5.64-.46,9.77-4.37,10.06-9.27.32-5.46-3.08-9.36-9.3-10.29a31.57,31.57,0,0,0-8.92-.47c-7.15,1-11.9-1.2-13.52-9.37,10.38.35,21-1.54,31.18,2.18,6,2.18,9.9,6.81,10.5,13.41.69,7.44-.31,14.38-7.58,18.66-1.7,1-3.49,1.86-5.46,2.9C546.6,648.35,556.2,652.75,553.8,662.73Z" transform="translate(-389.63 -105.26)"/><path class="cls-8" d="M921.41,641.82c2.74,7.92,12.15,12.32,10.24,22-4.31,1.7-7.17.33-9.5-3.54-5-8.32-10.3-16.48-15.65-25,3.28-.44,5.87-.77,8.47-1.13,6.51-.9,10.16-4.66,10-10.28-.16-5.45-4.29-9.42-10.54-9.85-3.14-.21-6.32,0-9.48-.05-8.42,0-8.42,0-12.25-9,10.57.08,21-1.5,31,1.84,6.76,2.25,10.45,7.4,11.15,14.5.81,8.23-2.19,14.6-9.57,18.67C924,640.7,922.68,641.23,921.41,641.82Z" transform="translate(-389.63 -105.26)"/><path class="cls-9" d="M872.45,605h9.87v58h-9.87Z" transform="translate(-389.63 -105.26)"/></svg>