<svg id="Layer_1" data-name="Layer 1" xmlns="http://www.w3.org/2000/svg" viewBox="0 0 155.03 479.37"><defs><style>.cls-1,.cls-2{fill:none;stroke:#fff;}.cls-1{stroke-linecap:round;stroke-width:4px;}.cls-2{stroke-width:3px;}.cls-3{fill:#fff;}</style></defs><title>mixer</title><line class="cls-1" x1="77.52" y1="47" x2="77.52" y2="397"/><path id="path4242" class="cls-2" d="M19.9,433H135.13c6.18,0,11.16,7.43,11.16,16.65s-5,16.66-11.16,16.66H19.9c-6.19,0-11.16-7.43-11.16-16.66S13.71,433,19.9,433Z"/><path id="path4244" class="cls-2" d="M12.67,1.5h129.7c6.15,0,11.15,13.56,11.15,30.41V447.5c0,16.85-5,30.41-11.17,30.41H12.67c-6.15,0-11.15-13.6-11.15-30.41V31.91C1.52,15.06,6.52,1.5,12.67,1.5Z"/><path id="path4256" class="cls-2" d="M132.88,387.86a15.36,15.36,0,1,1-15.36-15.36h0A15.36,15.36,0,0,1,132.88,387.86Z"/><path id="path4258" class="cls-2" d="M124.81,68.5a8.72,8.72,0,1,1-9.23-8.17l.53,0A8.47,8.47,0,0,1,124.81,68.5Z"/><path id="path4310" class="cls-2" d="M124.81,38a8.72,8.72,0,1,1-9.23-8.17l.53,0A8.47,8.47,0,0,1,124.81,38Z"/><path id="path4312" class="cls-2" d="M95,109.4h46.25c1.37,0,2.47,8.22,2.47,18.43s-1.1,18.42-2.47,18.42H95c-1.37,0-2.47-8.22-2.47-18.42S93.66,109.4,95,109.4Z"/><path id="path4314" class="cls-2" d="M95,180.59h46.25c1.37,0,2.47,8.22,2.47,18.43s-1.1,18.48-2.47,18.48H95c-1.37,0-2.47-8.22-2.47-18.43S93.66,180.59,95,180.59Z"/><path id="path4316" class="cls-2" d="M95,256.87h46.25c1.37,0,2.47,8.22,2.47,18.43s-1.1,18.43-2.47,18.43H95c-1.37,0-2.47-8.22-2.47-18.43S93.66,256.87,95,256.87Z"/><path class="cls-3" d="M36.34,443.23a20.17,20.17,0,0,1,3.34-.26,5.54,5.54,0,0,1,3.78,1.12,3.62,3.62,0,0,1,1.18,2.82,4,4,0,0,1-1,2.88,5.59,5.59,0,0,1-4.12,1.48,6,6,0,0,1-1.4-.12v5.41H36.34Zm1.74,6.5a5.84,5.84,0,0,0,1.44.14c2.1,0,3.38-1,3.38-2.88s-1.26-2.64-3.18-2.64a7.3,7.3,0,0,0-1.64.14Z"/><path class="cls-3" d="M55.18,451.63c0,3.59-2.48,5.15-4.82,5.15-2.62,0-4.64-1.92-4.64-5,0-3.24,2.12-5.14,4.8-5.14S55.18,448.67,55.18,451.63Zm-7.68.1c0,2.13,1.22,3.73,2.94,3.73s2.94-1.59,2.94-3.77c0-1.64-.82-3.72-2.9-3.72S47.5,449.89,47.5,451.73Z"/><path class="cls-3" d="M57.4,450c0-1.24,0-2.24-.08-3.16H58.9l.08,1.66h0a3.81,3.81,0,0,1,3.44-1.88c2.34,0,4.1,2,4.1,4.92,0,3.49-2.12,5.21-4.4,5.21a3.39,3.39,0,0,1-3-1.52h0v5.26H57.4Zm1.74,2.59a3.85,3.85,0,0,0,.08.71,2.71,2.71,0,0,0,2.64,2.07c1.86,0,2.94-1.53,2.94-3.75,0-1.94-1-3.6-2.88-3.6a2.81,2.81,0,0,0-2.66,2.18,2.85,2.85,0,0,0-.12.72Z"/><path class="cls-3" d="M76.88,453.92c0,1,0,1.88.08,2.64H75.4L75.3,455h0a3.64,3.64,0,0,1-3.2,1.8c-1.52,0-3.34-.84-3.34-4.24v-5.67h1.76v5.36c0,1.85.56,3.09,2.16,3.09a2.49,2.49,0,0,0,2.48-2.51v-5.94h1.76Z"/><path class="cls-3" d="M79.8,442.35h1.76v14.21H79.8Z"/><path class="cls-3" d="M89.88,456.56l-.14-1.23h-.06a3.59,3.59,0,0,1-3,1.45A2.75,2.75,0,0,1,83.76,454c0-2.35,2.08-3.63,5.82-3.61v-.2a2,2,0,0,0-2.2-2.24,4.89,4.89,0,0,0-2.53.72l-.39-1.16a6,6,0,0,1,3.18-.86c3,0,3.68,2,3.68,4v3.63a13.63,13.63,0,0,0,.16,2.32Zm-.26-4.95c-1.92,0-4.11.31-4.11,2.18a1.57,1.57,0,0,0,1.67,1.69,2.42,2.42,0,0,0,2.34-1.62,2,2,0,0,0,.1-.57Z"/><path class="cls-3" d="M94.16,449.89c0-1.14,0-2.12-.08-3h1.54l0,1.9h.09a2.9,2.9,0,0,1,2.68-2.12,1.9,1.9,0,0,1,.5.06v1.66a2.64,2.64,0,0,0-.6-.06A2.46,2.46,0,0,0,96,450.57a5,5,0,0,0-.08.82v5.17H94.16Z"/><path class="cls-3" d="M102.74,444.15a1.1,1.1,0,0,1-2.19,0,1.07,1.07,0,0,1,1.1-1.1A1.05,1.05,0,0,1,102.74,444.15Zm-2,12.41v-9.69h1.77v9.69Z"/><path class="cls-3" d="M107.58,444.09v2.78h2.52v1.34h-2.52v5.22c0,1.2.34,1.89,1.32,1.89a3.92,3.92,0,0,0,1-.12l.08,1.32a4.31,4.31,0,0,1-1.56.24,2.44,2.44,0,0,1-1.9-.74,3.6,3.6,0,0,1-.69-2.52v-5.29h-1.5v-1.34h1.5v-2.32Z"/><path class="cls-3" d="M112.89,446.87l2.12,5.72c.22.65.46,1.41.62,2h0c.18-.58.38-1.33.63-2l1.91-5.68h1.87l-2.64,6.91c-1.27,3.32-2.13,5-3.33,6.06A4.77,4.77,0,0,1,112,461l-.44-1.48a4.66,4.66,0,0,0,1.54-.86,5.34,5.34,0,0,0,1.48-2,1.26,1.26,0,0,0,.14-.42,1.53,1.53,0,0,0-.12-.46L111,446.87Z"/></svg>