<svg id="Layer_1" data-name="Layer 1" xmlns="http://www.w3.org/2000/svg" viewBox="0 0 155.03 479.37"><defs><style>.cls-1,.cls-2{fill:none;stroke:#fff;}.cls-1{stroke-linecap:round;stroke-width:4px;}.cls-2{stroke-width:3px;}</style></defs><title>mixer</title><line class="cls-1" x1="77.52" y1="47" x2="77.52" y2="397"/><path id="path4244" class="cls-2" d="M12.67,1.5h129.7c6.15,0,11.15,13.56,11.15,30.41V447.5c0,16.85-5,30.41-11.17,30.41H12.67c-6.15,0-11.15-13.6-11.15-30.41V31.91C1.52,15.06,6.52,1.5,12.67,1.5Z"/><path id="path4256" class="cls-2" d="M132.88,387.86a15.36,15.36,0,1,1-15.36-15.36h0A15.36,15.36,0,0,1,132.88,387.86Z"/><path id="path4258" class="cls-2" d="M124.81,68.5a8.72,8.72,0,1,1-9.23-8.17l.53,0A8.47,8.47,0,0,1,124.81,68.5Z"/><path id="path4310" class="cls-2" d="M124.81,38a8.72,8.72,0,1,1-9.23-8.17l.53,0A8.47,8.47,0,0,1,124.81,38Z"/><path id="path4312" class="cls-2" d="M95,109.4h46.25c1.37,0,2.47,8.22,2.47,18.43s-1.1,18.42-2.47,18.42H95c-1.37,0-2.47-8.22-2.47-18.42S93.66,109.4,95,109.4Z"/><path id="path4314" class="cls-2" d="M95,180.59h46.25c1.37,0,2.47,8.22,2.47,18.43s-1.1,18.48-2.47,18.48H95c-1.37,0-2.47-8.22-2.47-18.43S93.66,180.59,95,180.59Z"/><path id="path4316" class="cls-2" d="M95,256.87h46.25c1.37,0,2.47,8.22,2.47,18.43s-1.1,18.43-2.47,18.43H95c-1.37,0-2.47-8.22-2.47-18.43S93.66,256.87,95,256.87Z"/></svg>
