<svg id="Layer_1" data-name="Layer 1" xmlns="http://www.w3.org/2000/svg" viewBox="0 0 155.03 479.37"><defs><style>.cls-1,.cls-2{fill:none;stroke:#fff;}.cls-1{stroke-linecap:round;stroke-width:4px;}.cls-2{stroke-width:3px;}.cls-3{fill:#fff;}</style></defs><title>mixer</title><line class="cls-1" x1="78.03" y1="47" x2="78.03" y2="397"/><path id="path4242" class="cls-2" d="M19.9,433H135.13c6.18,0,11.16,7.43,11.16,16.65s-5,16.66-11.16,16.66H19.9c-6.19,0-11.16-7.43-11.16-16.66S13.71,433,19.9,433Z"/><path id="path4244" class="cls-2" d="M13.19,1.5h129.7C149,1.5,154,15.06,154,31.91V447.5c0,16.85-5,30.41-11.17,30.41H13.19C7,477.87,2,464.31,2,447.5V31.91C2,15.06,7,1.5,13.19,1.5Z"/><path id="path4256" class="cls-2" d="M133.4,387.86A15.36,15.36,0,1,1,118,372.5h0A15.36,15.36,0,0,1,133.4,387.86Z"/><path id="path4258" class="cls-2" d="M125.32,68.5a8.72,8.72,0,1,1-9.23-8.17l.53,0A8.45,8.45,0,0,1,125.32,68.5Z"/><path id="path4310" class="cls-2" d="M125.32,38a8.72,8.72,0,1,1-9.23-8.17l.53,0A8.45,8.45,0,0,1,125.32,38Z"/><path id="path4312" class="cls-2" d="M95.55,109.4H141.8c1.37,0,2.46,8.22,2.46,18.43s-1.09,18.42-2.46,18.42H95.55c-1.37,0-2.47-8.22-2.47-18.42S94.18,109.4,95.55,109.4Z"/><path id="path4314" class="cls-2" d="M95.55,180.59H141.8c1.37,0,2.46,8.22,2.46,18.43s-1.09,18.48-2.46,18.48H95.55c-1.37,0-2.47-8.22-2.47-18.43S94.18,180.59,95.55,180.59Z"/><path id="path4316" class="cls-2" d="M95.55,256.87H141.8c1.37,0,2.46,8.22,2.46,18.43s-1.09,18.43-2.46,18.43H95.55c-1.37,0-2.47-8.22-2.47-18.43S94.18,256.87,95.55,256.87Z"/><path class="cls-3" d="M27.34,441.39v13.48H25.6V441.39Z"/><path class="cls-3" d="M30.52,447.81c0-1,0-1.82-.08-2.62H32l.1,1.6h0a3.56,3.56,0,0,1,3.2-1.82c1.34,0,3.42.8,3.42,4.12v5.78H37v-5.58c0-1.56-.58-2.86-2.24-2.86a2.5,2.5,0,0,0-2.36,1.8,2.53,2.53,0,0,0-.12.82v5.82H30.52Z"/><path class="cls-3" d="M41.38,453.07a4.61,4.61,0,0,0,2.32.7c1.28,0,1.88-.64,1.88-1.44s-.5-1.3-1.8-1.78c-1.74-.62-2.56-1.58-2.56-2.74,0-1.56,1.26-2.84,3.34-2.84a4.83,4.83,0,0,1,2.38.6l-.44,1.28a3.77,3.77,0,0,0-2-.56c-1,0-1.62.6-1.62,1.32s.58,1.16,1.84,1.64c1.68.64,2.54,1.48,2.54,2.92,0,1.7-1.32,2.9-3.62,2.9a5.52,5.52,0,0,1-2.72-.66Z"/><path class="cls-3" d="M51.66,442.41v2.78h2.52v1.34H51.66v5.22c0,1.2.34,1.88,1.32,1.88a3.92,3.92,0,0,0,1-.12l.08,1.32a4.31,4.31,0,0,1-1.56.24,2.44,2.44,0,0,1-1.9-.74,3.59,3.59,0,0,1-.68-2.52v-5.28H48.43v-1.34h1.51v-2.32Z"/><path class="cls-3" d="M56.16,448.21c0-1.14,0-2.12-.08-3h1.54l.06,1.9h.08A2.9,2.9,0,0,1,60.44,445a1.9,1.9,0,0,1,.5.06v1.66a2.64,2.64,0,0,0-.6-.06A2.47,2.47,0,0,0,58,448.89a5,5,0,0,0-.08.82v5.16H56.16Z"/><path class="cls-3" d="M70.8,452.23c0,1,0,1.88.08,2.64H69.32l-.1-1.58h0a3.64,3.64,0,0,1-3.2,1.8c-1.52,0-3.34-.84-3.34-4.24v-5.66H64.4v5.36c0,1.84.56,3.08,2.16,3.08a2.54,2.54,0,0,0,2.32-1.6,2.57,2.57,0,0,0,.16-.9v-5.94H70.8Z"/><path class="cls-3" d="M73.72,447.81c0-1,0-1.82-.08-2.62h1.54l.08,1.56h.06a3.34,3.34,0,0,1,3-1.78,2.86,2.86,0,0,1,2.74,1.94h0a4,4,0,0,1,1.08-1.26,3.3,3.3,0,0,1,2.14-.68c1.28,0,3.18.84,3.18,4.2v5.7H85.82v-5.48c0-1.86-.68-3-2.1-3a2.28,2.28,0,0,0-2.08,1.6,2.9,2.9,0,0,0-.14.88v6H79.78v-5.8c0-1.54-.68-2.66-2-2.66A2.62,2.62,0,0,0,75.44,449v5.84H73.72Z"/><path class="cls-3" d="M91.38,450.35a3.1,3.1,0,0,0,3.32,3.36,6.36,6.36,0,0,0,2.68-.5l.3,1.26a7.84,7.84,0,0,1-3.22.6c-3,0-4.76-2-4.76-4.88S91.42,445,94.24,445c3.16,0,4,2.78,4,4.56a6.64,6.64,0,0,1-.06.82Zm5.16-1.26c0-1.12-.46-2.86-2.44-2.86-1.78,0-2.56,1.64-2.7,2.86Z"/><path class="cls-3" d="M100.42,447.81c0-1,0-1.82-.08-2.62h1.56l.1,1.6h0a3.56,3.56,0,0,1,3.2-1.82c1.34,0,3.42.8,3.42,4.12v5.78H106.9v-5.58c0-1.56-.58-2.86-2.24-2.86a2.5,2.5,0,0,0-2.36,1.8,2.53,2.53,0,0,0-.12.82v5.82h-1.76Z"/><path class="cls-3" d="M113.56,442.41v2.78h2.52v1.34h-2.52v5.22c0,1.2.34,1.88,1.32,1.88a3.92,3.92,0,0,0,1-.12l.08,1.32a4.31,4.31,0,0,1-1.56.24,2.42,2.42,0,0,1-1.9-.74,3.59,3.59,0,0,1-.68-2.52v-5.28h-1.51v-1.34h1.51v-2.32Z"/><path class="cls-3" d="M123.42,454.87l-.14-1.22h-.06a3.61,3.61,0,0,1-3,1.44,2.76,2.76,0,0,1-3-2.78c0-2.34,2.08-3.62,5.82-3.6v-.2a2,2,0,0,0-2.2-2.24,4.89,4.89,0,0,0-2.53.72l-.39-1.16a6,6,0,0,1,3.18-.86c3,0,3.68,2,3.68,4v3.62a13.63,13.63,0,0,0,.16,2.32Zm-.26-4.94c-1.92,0-4.1.3-4.1,2.18a1.56,1.56,0,0,0,1.66,1.68,2.41,2.41,0,0,0,2.34-1.62,1.84,1.84,0,0,0,.1-.56Z"/><path class="cls-3" d="M127.69,440.67h1.77v14.2h-1.77Z"/></svg>