<svg id="Layer_1" data-name="Layer 1" xmlns="http://www.w3.org/2000/svg" viewBox="0 0 155.03 479.37"><defs><style>.cls-1,.cls-2{fill:none;stroke:#fff;}.cls-1{stroke-linecap:round;stroke-width:4px;}.cls-2{stroke-width:3px;}.cls-3{fill:#fff;}</style></defs><title>mixer</title><line class="cls-1" x1="78.03" y1="47" x2="78.03" y2="397"/><path id="path4242" class="cls-2" d="M19.9,433H135.13c6.18,0,11.16,7.43,11.16,16.65s-5,16.66-11.16,16.66H19.9c-6.19,0-11.16-7.43-11.16-16.66S13.71,433,19.9,433Z"/><path id="path4244" class="cls-2" d="M13.19,1.5h129.7C149,1.5,154,15.06,154,31.91V447.5c0,16.85-5,30.41-11.17,30.41H13.19C7,477.87,2,464.31,2,447.5V31.91C2,15.06,7,1.5,13.19,1.5Z"/><path id="path4256" class="cls-2" d="M133.4,387.86A15.36,15.36,0,1,1,118,372.5h0A15.36,15.36,0,0,1,133.4,387.86Z"/><path id="path4258" class="cls-2" d="M125.32,68.5a8.72,8.72,0,1,1-9.23-8.17l.53,0A8.45,8.45,0,0,1,125.32,68.5Z"/><path id="path4310" class="cls-2" d="M125.32,38a8.72,8.72,0,1,1-9.23-8.17l.53,0A8.45,8.45,0,0,1,125.32,38Z"/><path id="path4312" class="cls-2" d="M95.55,109.4H141.8c1.37,0,2.46,8.22,2.46,18.43s-1.09,18.42-2.46,18.42H95.55c-1.37,0-2.47-8.22-2.47-18.42S94.18,109.4,95.55,109.4Z"/><path id="path4314" class="cls-2" d="M95.55,180.59H141.8c1.37,0,2.46,8.22,2.46,18.43s-1.09,18.48-2.46,18.48H95.55c-1.37,0-2.47-8.22-2.47-18.43S94.18,180.59,95.55,180.59Z"/><path id="path4316" class="cls-2" d="M95.55,256.87H141.8c1.37,0,2.46,8.22,2.46,18.43s-1.09,18.43-2.46,18.43H95.55c-1.37,0-2.47-8.22-2.47-18.43S94.18,256.87,95.55,256.87Z"/><path class="cls-3" d="M43.78,441.39h1.74v12h5.76v1.46h-7.5Z"/><path class="cls-3" d="M55.12,442.47a1.09,1.09,0,0,1-2.18,0,1.07,1.07,0,0,1,1.1-1.1A1,1,0,0,1,55.12,442.47Zm-2,12.4v-9.68h1.76v9.68Z"/><path class="cls-3" d="M58.52,445.19l1.9,5.44a24.89,24.89,0,0,1,.78,2.48h.06c.22-.8.5-1.6.82-2.48L64,445.19H65.8L62,454.87H60.32l-3.68-9.68Z"/><path class="cls-3" d="M68.24,450.35a3.1,3.1,0,0,0,3.32,3.36,6.36,6.36,0,0,0,2.68-.5l.3,1.26a7.84,7.84,0,0,1-3.22.6c-3,0-4.76-2-4.76-4.88S68.28,445,71.1,445c3.16,0,4,2.78,4,4.56a6.64,6.64,0,0,1-.06.82Zm5.16-1.26c0-1.12-.46-2.86-2.44-2.86-1.78,0-2.56,1.64-2.7,2.86Z"/><path class="cls-3" d="M77.28,447.81c0-1,0-1.82-.08-2.62h1.56l.1,1.6h0A3.56,3.56,0,0,1,82.1,445c1.34,0,3.42.8,3.42,4.12v5.78H83.76v-5.58c0-1.56-.58-2.86-2.24-2.86a2.5,2.5,0,0,0-2.36,1.8,2.53,2.53,0,0,0-.12.82v5.82H77.28Z"/><path class="cls-3" d="M89.36,450.35a3.1,3.1,0,0,0,3.32,3.36,6.36,6.36,0,0,0,2.68-.5l.3,1.26a7.84,7.84,0,0,1-3.22.6c-3,0-4.76-2-4.76-4.88S89.4,445,92.22,445c3.16,0,4,2.78,4,4.56a6.64,6.64,0,0,1-.06.82Zm5.16-1.26c0-1.12-.46-2.86-2.44-2.86-1.78,0-2.56,1.64-2.7,2.86Z"/><path class="cls-3" d="M98.16,453.07a4.61,4.61,0,0,0,2.32.7c1.28,0,1.88-.64,1.88-1.44s-.5-1.3-1.8-1.78C98.82,449.93,98,449,98,447.81c0-1.56,1.26-2.84,3.34-2.84a4.83,4.83,0,0,1,2.38.6l-.44,1.28a3.77,3.77,0,0,0-2-.56c-1,0-1.62.6-1.62,1.32s.58,1.16,1.84,1.64c1.68.64,2.54,1.48,2.54,2.92,0,1.7-1.32,2.9-3.62,2.9a5.52,5.52,0,0,1-2.72-.66Z"/><path class="cls-3" d="M106.08,453.07a4.58,4.58,0,0,0,2.32.7c1.28,0,1.88-.64,1.88-1.44s-.5-1.3-1.8-1.78c-1.74-.62-2.56-1.58-2.56-2.74,0-1.56,1.26-2.84,3.34-2.84a4.83,4.83,0,0,1,2.38.6l-.44,1.28a3.77,3.77,0,0,0-2-.56c-1,0-1.62.6-1.62,1.32s.58,1.16,1.84,1.64c1.68.64,2.54,1.48,2.54,2.92,0,1.7-1.32,2.9-3.62,2.9a5.52,5.52,0,0,1-2.72-.66Z"/></svg>