<svg id="Layer_1" data-name="Layer 1" xmlns="http://www.w3.org/2000/svg" viewBox="0 0 155.03 479.37"><defs><style>.cls-1,.cls-2{fill:none;stroke:#fff;}.cls-1{stroke-linecap:round;stroke-width:4px;}.cls-2{stroke-width:3px;}.cls-3{fill:#fff;}</style></defs><title>mixer</title><line class="cls-1" x1="78.03" y1="47" x2="78.03" y2="397"/><path id="path4242" class="cls-2" d="M19.9,433H135.13c6.18,0,11.16,7.43,11.16,16.65s-5,16.66-11.16,16.66H19.9c-6.19,0-11.16-7.43-11.16-16.66S13.71,433,19.9,433Z"/><path id="path4244" class="cls-2" d="M13.19,1.5h129.7C149,1.5,154,15.06,154,31.91V447.5c0,16.85-5,30.41-11.17,30.41H13.19C7,477.87,2,464.31,2,447.5V31.91C2,15.06,7,1.5,13.19,1.5Z"/><path id="path4256" class="cls-2" d="M133.4,387.86A15.36,15.36,0,1,1,118,372.5h0A15.36,15.36,0,0,1,133.4,387.86Z"/><path id="path4258" class="cls-2" d="M125.32,68.5a8.72,8.72,0,1,1-9.23-8.17l.53,0A8.45,8.45,0,0,1,125.32,68.5Z"/><path id="path4310" class="cls-2" d="M125.32,38a8.72,8.72,0,1,1-9.23-8.17l.53,0A8.45,8.45,0,0,1,125.32,38Z"/><path id="path4312" class="cls-2" d="M95.55,109.4H141.8c1.37,0,2.46,8.22,2.46,18.43s-1.09,18.42-2.46,18.42H95.55c-1.37,0-2.47-8.22-2.47-18.42S94.18,109.4,95.55,109.4Z"/><path id="path4314" class="cls-2" d="M95.55,180.59H141.8c1.37,0,2.46,8.22,2.46,18.43s-1.09,18.48-2.46,18.48H95.55c-1.37,0-2.47-8.22-2.47-18.43S94.18,180.59,95.55,180.59Z"/><path id="path4316" class="cls-2" d="M95.55,256.87H141.8c1.37,0,2.46,8.22,2.46,18.43s-1.09,18.43-2.46,18.43H95.55c-1.37,0-2.47-8.22-2.47-18.43S94.18,256.87,95.55,256.87Z"/><path class="cls-3" d="M27.31,452.75a6.17,6.17,0,0,0,3.12.88c1.78,0,2.82-.94,2.82-2.3s-.72-2-2.54-2.68c-2.2-.78-3.56-1.92-3.56-3.82,0-2.1,1.74-3.66,4.36-3.66a6.12,6.12,0,0,1,3,.66L34,443.25a5.37,5.37,0,0,0-2.56-.64c-1.84,0-2.54,1.1-2.54,2,0,1.26.82,1.88,2.68,2.6,2.28.88,3.44,2,3.44,4s-1.54,3.88-4.72,3.88a7,7,0,0,1-3.44-.86Z"/><path class="cls-3" d="M37.35,448.35c0-1.24,0-2.24-.08-3.16h1.58l.08,1.66h0A3.81,3.81,0,0,1,42.41,445c2.34,0,4.1,2,4.1,4.92,0,3.48-2.12,5.2-4.4,5.2a3.39,3.39,0,0,1-3-1.52h0v5.26H37.35Zm1.74,2.58a4,4,0,0,0,.08.72,2.72,2.72,0,0,0,2.64,2.06c1.86,0,2.94-1.52,2.94-3.74,0-1.94-1-3.6-2.88-3.6a2.81,2.81,0,0,0-2.66,2.18,2.85,2.85,0,0,0-.12.72Z"/><path class="cls-3" d="M49.71,450.35A3.1,3.1,0,0,0,53,453.71a6.36,6.36,0,0,0,2.68-.5l.3,1.26a7.84,7.84,0,0,1-3.22.6c-3,0-4.76-2-4.76-4.88S49.75,445,52.57,445c3.16,0,4,2.78,4,4.56a6.64,6.64,0,0,1-.06.82Zm5.16-1.26c0-1.12-.46-2.86-2.44-2.86-1.78,0-2.56,1.64-2.7,2.86Z"/><path class="cls-3" d="M59.73,450.35a3.1,3.1,0,0,0,3.32,3.36,6.36,6.36,0,0,0,2.68-.5l.3,1.26a7.84,7.84,0,0,1-3.22.6c-3,0-4.76-2-4.76-4.88S59.77,445,62.59,445c3.16,0,4,2.78,4,4.56a6.64,6.64,0,0,1-.06.82Zm5.16-1.26c0-1.12-.46-2.86-2.44-2.86-1.78,0-2.56,1.64-2.7,2.86Z"/><path class="cls-3" d="M75.67,454.51a6.48,6.48,0,0,1-2.78.56,4.6,4.6,0,0,1-4.82-4.94,4.92,4.92,0,0,1,5.2-5.14,5.88,5.88,0,0,1,2.44.5l-.4,1.36a4.08,4.08,0,0,0-2-.46,3.65,3.65,0,0,0-.06,7.28,5,5,0,0,0,2.16-.48Z"/><path class="cls-3" d="M77.73,440.67h1.76v6h0a3.27,3.27,0,0,1,1.26-1.24,3.62,3.62,0,0,1,1.8-.5c1.3,0,3.38.8,3.38,4.14v5.76H84.21v-5.56c0-1.56-.58-2.88-2.24-2.88a2.53,2.53,0,0,0-2.36,1.76,2.13,2.13,0,0,0-.12.84v5.84H77.73Z"/><path class="cls-3" d="M90.79,442.47a1.09,1.09,0,0,1-2.18,0,1.07,1.07,0,0,1,1.1-1.1A1,1,0,0,1,90.79,442.47Zm-2,12.4v-9.68h1.76v9.68Z"/><path class="cls-3" d="M93.51,447.81c0-1,0-1.82-.09-2.62H95l.1,1.6h0a3.56,3.56,0,0,1,3.2-1.82c1.34,0,3.42.8,3.42,4.12v5.78H100v-5.58c0-1.56-.58-2.86-2.24-2.86a2.5,2.5,0,0,0-2.36,1.8,2.53,2.53,0,0,0-.12.82v5.82H93.51Z"/><path class="cls-3" d="M105.59,450.35a3.1,3.1,0,0,0,3.32,3.36,6.36,6.36,0,0,0,2.68-.5l.3,1.26a7.84,7.84,0,0,1-3.22.6c-3,0-4.77-2-4.77-4.88s1.73-5.22,4.55-5.22c3.16,0,4,2.78,4,4.56a6.64,6.64,0,0,1-.06.82Zm5.16-1.26c0-1.12-.46-2.86-2.44-2.86-1.78,0-2.56,1.64-2.71,2.86Z"/><path class="cls-3" d="M114.38,453.07a4.65,4.65,0,0,0,2.33.7c1.28,0,1.88-.64,1.88-1.44s-.5-1.3-1.8-1.78c-1.74-.62-2.57-1.58-2.57-2.74,0-1.56,1.26-2.84,3.35-2.84a4.83,4.83,0,0,1,2.38.6l-.44,1.28a3.77,3.77,0,0,0-2-.56c-1,0-1.62.6-1.62,1.32s.58,1.16,1.84,1.64c1.68.64,2.54,1.48,2.54,2.92,0,1.7-1.32,2.9-3.62,2.9a5.56,5.56,0,0,1-2.73-.66Z"/><path class="cls-3" d="M122.3,453.07a4.65,4.65,0,0,0,2.33.7c1.28,0,1.88-.64,1.88-1.44s-.5-1.3-1.8-1.78c-1.75-.62-2.57-1.58-2.57-2.74,0-1.56,1.26-2.84,3.35-2.84a4.83,4.83,0,0,1,2.38.6l-.44,1.28a3.77,3.77,0,0,0-2-.56c-1,0-1.62.6-1.62,1.32s.58,1.16,1.84,1.64c1.68.64,2.54,1.48,2.54,2.92,0,1.7-1.32,2.9-3.62,2.9a5.56,5.56,0,0,1-2.73-.66Z"/></svg>