<svg id="Layer_1" data-name="Layer 1" xmlns="http://www.w3.org/2000/svg" viewBox="0 0 155.03 479.37"><defs><style>.cls-1,.cls-2{fill:none;stroke:#fff;}.cls-1{stroke-linecap:round;stroke-width:4px;}.cls-2{stroke-width:3px;}</style></defs><title>mixer</title><line class="cls-1" x1="77.52" y1="47" x2="77.52" y2="397"/><path id="path4242" class="cls-2" d="M623.94,577.48H739.17c6.18,0,11.16,7.43,11.16,16.65s-5,16.66-11.16,16.66H623.94c-6.19,0-11.16-7.43-11.16-16.66S617.75,577.48,623.94,577.48Z" transform="translate(-605.48 -144.5)"/><path id="path4244" class="cls-2" d="M618.15,146h129.7C754,146,759,159.56,759,176.41V592c0,16.85-5,30.41-11.17,30.41H618.15C612,622.37,607,608.81,607,592V176.41C607,159.56,612,146,618.15,146Z" transform="translate(-605.48 -144.5)"/><path id="path4256" class="cls-2" d="M738.36,532.36A15.36,15.36,0,1,1,723,517,15.36,15.36,0,0,1,738.36,532.36Z" transform="translate(-605.48 -144.5)"/><path id="path4258" class="cls-2" d="M730.29,213a8.72,8.72,0,1,1-8.7-8.19A8.46,8.46,0,0,1,730.29,213Z" transform="translate(-605.48 -144.5)"/><path id="path4310" class="cls-2" d="M730.29,182.52a8.72,8.72,0,1,1-8.7-8.19A8.46,8.46,0,0,1,730.29,182.52Z" transform="translate(-605.48 -144.5)"/><path id="path4312" class="cls-2" d="M700.51,253.9h46.25c1.37,0,2.47,8.22,2.47,18.43s-1.1,18.42-2.47,18.42H700.51c-1.37,0-2.47-8.22-2.47-18.42S699.14,253.9,700.51,253.9Z" transform="translate(-605.48 -144.5)"/><path id="path4314" class="cls-2" d="M700.51,325.09h46.25c1.37,0,2.47,8.22,2.47,18.43S748.13,362,746.76,362H700.51c-1.37,0-2.47-8.22-2.47-18.43S699.14,325.09,700.51,325.09Z" transform="translate(-605.48 -144.5)"/><path id="path4316" class="cls-2" d="M700.51,401.37h46.25c1.37,0,2.47,8.22,2.47,18.43s-1.1,18.43-2.47,18.43H700.51c-1.37,0-2.47-8.22-2.47-18.43S699.14,401.37,700.51,401.37Z" transform="translate(-605.48 -144.5)"/></svg>