<svg id="Layer_1" data-name="Layer 1" xmlns="http://www.w3.org/2000/svg" viewBox="0 0 155.03 479.37"><defs><style>.cls-1,.cls-2{fill:none;stroke:#fff;}.cls-1{stroke-linecap:round;stroke-width:4px;}.cls-2{stroke-width:3px;}.cls-3{fill:#fff;}</style></defs><title>mixer</title><line class="cls-1" x1="78.03" y1="47" x2="78.03" y2="397"/><path id="path4242" class="cls-2" d="M19.9,433H135.13c6.18,0,11.16,7.43,11.16,16.65s-5,16.66-11.16,16.66H19.9c-6.19,0-11.16-7.43-11.16-16.66S13.71,433,19.9,433Z"/><path id="path4244" class="cls-2" d="M13.19,1.5h129.7C149,1.5,154,15.06,154,31.91V447.5c0,16.85-5,30.41-11.17,30.41H13.19C7,477.87,2,464.31,2,447.5V31.91C2,15.06,7,1.5,13.19,1.5Z"/><path id="path4256" class="cls-2" d="M133.4,387.86A15.36,15.36,0,1,1,118,372.5h0A15.36,15.36,0,0,1,133.4,387.86Z"/><path id="path4258" class="cls-2" d="M125.32,68.5a8.72,8.72,0,1,1-9.23-8.17l.53,0A8.45,8.45,0,0,1,125.32,68.5Z"/><path id="path4310" class="cls-2" d="M125.32,38a8.72,8.72,0,1,1-9.23-8.17l.53,0A8.45,8.45,0,0,1,125.32,38Z"/><path id="path4312" class="cls-2" d="M95.55,109.4H141.8c1.37,0,2.46,8.22,2.46,18.43s-1.09,18.42-2.46,18.42H95.55c-1.37,0-2.47-8.22-2.47-18.42S94.18,109.4,95.55,109.4Z"/><path id="path4314" class="cls-2" d="M95.55,180.59H141.8c1.37,0,2.46,8.22,2.46,18.43s-1.09,18.48-2.46,18.48H95.55c-1.37,0-2.47-8.22-2.47-18.43S94.18,180.59,95.55,180.59Z"/><path id="path4316" class="cls-2" d="M95.55,256.87H141.8c1.37,0,2.46,8.22,2.46,18.43s-1.09,18.43-2.46,18.43H95.55c-1.37,0-2.47-8.22-2.47-18.43S94.18,256.87,95.55,256.87Z"/><path class="cls-3" d="M26.92,441.57a24.92,24.92,0,0,1,3.7-.28c2.5,0,4.28.58,5.46,1.68a6.21,6.21,0,0,1,1.9,4.84A7.13,7.13,0,0,1,36,453.05c-1.26,1.26-3.34,1.94-6,1.94a28.08,28.08,0,0,1-3.16-.16Zm1.74,11.92a11,11,0,0,0,1.76.1c3.72,0,5.74-2.08,5.74-5.72,0-3.18-1.78-5.2-5.46-5.2a9.89,9.89,0,0,0-2,.18Z"/><path class="cls-3" d="M45.54,454.87l-.14-1.22h-.06a3.61,3.61,0,0,1-3,1.44,2.76,2.76,0,0,1-3-2.78c0-2.34,2.08-3.62,5.82-3.6v-.2a2,2,0,0,0-2.2-2.24,4.82,4.82,0,0,0-2.52.72l-.4-1.16A6,6,0,0,1,43.3,445c3,0,3.68,2,3.68,4v3.62a13.63,13.63,0,0,0,.16,2.32Zm-.26-4.94c-1.92,0-4.1.3-4.1,2.18a1.56,1.56,0,0,0,1.66,1.68,2.41,2.41,0,0,0,2.34-1.62,1.84,1.84,0,0,0,.1-.56Z"/><path class="cls-3" d="M49.82,447.81c0-1,0-1.82-.08-2.62H51.3l.1,1.6h0a3.56,3.56,0,0,1,3.2-1.82c1.34,0,3.42.8,3.42,4.12v5.78H56.3v-5.58c0-1.56-.58-2.86-2.24-2.86a2.5,2.5,0,0,0-2.36,1.8,2.53,2.53,0,0,0-.12.82v5.82H49.82Z"/><path class="cls-3" d="M67.82,454.51a6.48,6.48,0,0,1-2.78.56,4.6,4.6,0,0,1-4.82-4.94,4.92,4.92,0,0,1,5.2-5.14,5.88,5.88,0,0,1,2.44.5l-.4,1.36a4.08,4.08,0,0,0-2-.46,3.65,3.65,0,0,0-.06,7.28,5,5,0,0,0,2.16-.48Z"/><path class="cls-3" d="M70.74,450.35a3.1,3.1,0,0,0,3.32,3.36,6.36,6.36,0,0,0,2.68-.5l.3,1.26a7.84,7.84,0,0,1-3.22.6c-3,0-4.76-2-4.76-4.88S70.78,445,73.6,445c3.16,0,4,2.78,4,4.56a6.64,6.64,0,0,1-.06.82Zm5.16-1.26c0-1.12-.46-2.86-2.44-2.86-1.78,0-2.56,1.64-2.7,2.86Z"/><path class="cls-3" d="M85.14,454.87,85,453.65h-.06a3.61,3.61,0,0,1-3,1.44,2.76,2.76,0,0,1-3-2.78c0-2.34,2.08-3.62,5.82-3.6v-.2a2,2,0,0,0-2.2-2.24,4.82,4.82,0,0,0-2.52.72l-.4-1.16A6,6,0,0,1,82.9,445c3,0,3.68,2,3.68,4v3.62a13.63,13.63,0,0,0,.16,2.32Zm-.26-4.94c-1.92,0-4.1.3-4.1,2.18a1.56,1.56,0,0,0,1.66,1.68,2.41,2.41,0,0,0,2.34-1.62,1.84,1.84,0,0,0,.1-.56Z"/><path class="cls-3" d="M89.34,454.87c0-.66.08-1.64.08-2.5v-11.7h1.74v6.08h0A3.61,3.61,0,0,1,94.5,445c2.4,0,4.1,2,4.08,4.94,0,3.46-2.18,5.18-4.34,5.18A3.45,3.45,0,0,1,91,453.27h-.06l-.08,1.6ZM91.16,451a3.3,3.3,0,0,0,.08.64,2.72,2.72,0,0,0,2.64,2.06c1.84,0,2.94-1.5,2.94-3.72,0-1.94-1-3.6-2.88-3.6a2.81,2.81,0,0,0-2.68,2.16,3.47,3.47,0,0,0-.1.72Z"/><path class="cls-3" d="M102.76,442.47a1.09,1.09,0,0,1-2.18,0,1.07,1.07,0,0,1,1.1-1.1A1,1,0,0,1,102.76,442.47Zm-2,12.4v-9.68h1.76v9.68Z"/><path class="cls-3" d="M105.48,440.67h1.76v14.2h-1.76Z"/><path class="cls-3" d="M112.16,442.47a1.09,1.09,0,0,1-2.18,0,1.07,1.07,0,0,1,1.09-1.1A1.05,1.05,0,0,1,112.16,442.47Zm-2,12.4v-9.68H112v9.68Z"/><path class="cls-3" d="M117,442.41v2.78h2.52v1.34H117v5.22c0,1.2.34,1.88,1.32,1.88a3.92,3.92,0,0,0,1-.12l.08,1.32a4.31,4.31,0,0,1-1.56.24,2.44,2.44,0,0,1-1.9-.74,3.58,3.58,0,0,1-.69-2.52v-5.28h-1.5v-1.34h1.5v-2.32Z"/><path class="cls-3" d="M122.31,445.19l2.13,5.72c.21.64.46,1.4.62,2h0c.17-.58.38-1.32.62-2l1.92-5.68h1.86l-2.64,6.9c-1.26,3.32-2.13,5-3.33,6.06a4.77,4.77,0,0,1-2.16,1.14l-.44-1.48a4.66,4.66,0,0,0,1.54-.86,5.23,5.23,0,0,0,1.48-2,1.34,1.34,0,0,0,.15-.42,1.53,1.53,0,0,0-.12-.46l-3.59-8.92Z"/></svg>