<svg id="Layer_1" data-name="Layer 1" xmlns="http://www.w3.org/2000/svg" viewBox="0 0 155.03 479.37"><defs><style>.cls-1,.cls-2{fill:none;stroke:#fff;}.cls-1{stroke-linecap:round;stroke-width:4px;}.cls-2{stroke-width:3px;}.cls-3{fill:#fff;}</style></defs><title>mixer</title><line class="cls-1" x1="78.03" y1="47" x2="78.03" y2="397"/><path id="path4242" class="cls-2" d="M19.9,433H135.13c6.18,0,11.16,7.43,11.16,16.65s-5,16.66-11.16,16.66H19.9c-6.19,0-11.16-7.43-11.16-16.66S13.71,433,19.9,433Z"/><path id="path4244" class="cls-2" d="M13.19,1.5h129.7C149,1.5,154,15.06,154,31.91V447.5c0,16.85-5,30.41-11.17,30.41H13.19C7,477.87,2,464.31,2,447.5V31.91C2,15.06,7,1.5,13.19,1.5Z"/><path id="path4256" class="cls-2" d="M133.4,387.86A15.36,15.36,0,1,1,118,372.5h0A15.36,15.36,0,0,1,133.4,387.86Z"/><path id="path4258" class="cls-2" d="M125.32,68.5a8.72,8.72,0,1,1-9.23-8.17l.53,0A8.45,8.45,0,0,1,125.32,68.5Z"/><path id="path4310" class="cls-2" d="M125.32,38a8.72,8.72,0,1,1-9.23-8.17l.53,0A8.45,8.45,0,0,1,125.32,38Z"/><path id="path4312" class="cls-2" d="M95.55,109.4H141.8c1.37,0,2.46,8.22,2.46,18.43s-1.09,18.42-2.46,18.42H95.55c-1.37,0-2.47-8.22-2.47-18.42S94.18,109.4,95.55,109.4Z"/><path id="path4314" class="cls-2" d="M95.55,180.59H141.8c1.37,0,2.46,8.22,2.46,18.43s-1.09,18.48-2.46,18.48H95.55c-1.37,0-2.47-8.22-2.47-18.43S94.18,180.59,95.55,180.59Z"/><path id="path4316" class="cls-2" d="M95.55,256.87H141.8c1.37,0,2.46,8.22,2.46,18.43s-1.09,18.43-2.46,18.43H95.55c-1.37,0-2.47-8.22-2.47-18.43S94.18,256.87,95.55,256.87Z"/><path class="cls-3" d="M27.23,450.63l-1.4,4.24H24l4.58-13.48h2.1l4.6,13.48H33.45L32,450.63Zm4.42-1.36-1.32-3.88c-.3-.88-.5-1.68-.7-2.46h0c-.2.8-.42,1.62-.68,2.44l-1.32,3.9Z"/><path class="cls-3" d="M43.89,454.51a6.48,6.48,0,0,1-2.78.56,4.6,4.6,0,0,1-4.82-4.94,4.92,4.92,0,0,1,5.2-5.14,5.88,5.88,0,0,1,2.44.5l-.4,1.36a4.08,4.08,0,0,0-2-.46,3.65,3.65,0,0,0-.06,7.28,5,5,0,0,0,2.16-.48Z"/><path class="cls-3" d="M54.59,450c0,3.58-2.48,5.14-4.82,5.14-2.62,0-4.64-1.92-4.64-5,0-3.24,2.12-5.14,4.8-5.14S54.59,447,54.59,450Zm-7.68.1c0,2.12,1.22,3.72,2.94,3.72s2.94-1.58,2.94-3.76c0-1.64-.82-3.72-2.9-3.72S46.91,448.21,46.91,450.05Z"/><path class="cls-3" d="M64.91,452.23c0,1,0,1.88.08,2.64H63.43l-.1-1.58h0a3.64,3.64,0,0,1-3.2,1.8c-1.52,0-3.34-.84-3.34-4.24v-5.66h1.76v5.36c0,1.84.56,3.08,2.16,3.08A2.54,2.54,0,0,0,63,452a2.57,2.57,0,0,0,.16-.9v-5.94h1.76Z"/><path class="cls-3" d="M67.59,453.07a4.61,4.61,0,0,0,2.32.7c1.28,0,1.88-.64,1.88-1.44s-.5-1.3-1.8-1.78c-1.74-.62-2.56-1.58-2.56-2.74,0-1.56,1.26-2.84,3.34-2.84a4.83,4.83,0,0,1,2.38.6l-.44,1.28a3.77,3.77,0,0,0-2-.56c-1,0-1.62.6-1.62,1.32s.58,1.16,1.84,1.64c1.68.64,2.54,1.48,2.54,2.92,0,1.7-1.32,2.9-3.62,2.9a5.52,5.52,0,0,1-2.72-.66Z"/><path class="cls-3" d="M77.87,442.41v2.78h2.52v1.34H77.87v5.22c0,1.2.34,1.88,1.32,1.88a3.92,3.92,0,0,0,1-.12l.08,1.32a4.31,4.31,0,0,1-1.56.24,2.44,2.44,0,0,1-1.9-.74,3.59,3.59,0,0,1-.68-2.52v-5.28h-1.5v-1.34h1.5v-2.32Z"/><path class="cls-3" d="M84.33,442.47a1.09,1.09,0,0,1-2.18,0,1.07,1.07,0,0,1,1.1-1.1A1,1,0,0,1,84.33,442.47Zm-2,12.4v-9.68h1.76v9.68Z"/><path class="cls-3" d="M94,454.51a6.48,6.48,0,0,1-2.78.56,4.6,4.6,0,0,1-4.82-4.94,4.92,4.92,0,0,1,5.2-5.14,5.88,5.88,0,0,1,2.44.5l-.4,1.36a4.08,4.08,0,0,0-2-.46,3.65,3.65,0,0,0-.06,7.28,5,5,0,0,0,2.16-.48Z"/><path class="cls-3" d="M96,447.81c0-1,0-1.82-.08-2.62h1.56l.1,1.6h0a3.56,3.56,0,0,1,3.2-1.82c1.34,0,3.42.8,3.42,4.12v5.78h-1.76v-5.58c0-1.56-.58-2.86-2.24-2.86a2.5,2.5,0,0,0-2.36,1.8,2.53,2.53,0,0,0-.12.82v5.82H96Z"/><path class="cls-3" d="M108.09,450.35a3.1,3.1,0,0,0,3.32,3.36,6.36,6.36,0,0,0,2.68-.5l.3,1.26a7.84,7.84,0,0,1-3.22.6,4.5,4.5,0,0,1-4.77-4.88c0-2.92,1.73-5.22,4.55-5.22,3.16,0,4,2.78,4,4.56a6.64,6.64,0,0,1-.06.82Zm5.16-1.26c0-1.12-.46-2.86-2.44-2.86-1.78,0-2.56,1.64-2.7,2.86Z"/><path class="cls-3" d="M116.88,453.07a4.61,4.61,0,0,0,2.32.7c1.29,0,1.89-.64,1.89-1.44s-.5-1.3-1.81-1.78c-1.74-.62-2.56-1.58-2.56-2.74,0-1.56,1.27-2.84,3.35-2.84a4.83,4.83,0,0,1,2.38.6l-.44,1.28a3.77,3.77,0,0,0-2-.56c-1,0-1.63.6-1.63,1.32s.59,1.16,1.85,1.64c1.68.64,2.54,1.48,2.54,2.92,0,1.7-1.32,2.9-3.62,2.9a5.56,5.56,0,0,1-2.73-.66Z"/><path class="cls-3" d="M124.8,453.07a4.61,4.61,0,0,0,2.32.7c1.28,0,1.89-.64,1.89-1.44s-.5-1.3-1.81-1.78c-1.74-.62-2.56-1.58-2.56-2.74,0-1.56,1.26-2.84,3.35-2.84a4.83,4.83,0,0,1,2.38.6l-.44,1.28a3.78,3.78,0,0,0-2-.56c-1,0-1.62.6-1.62,1.32s.58,1.16,1.85,1.64c1.68.64,2.54,1.48,2.54,2.92,0,1.7-1.32,2.9-3.62,2.9a5.56,5.56,0,0,1-2.73-.66Z"/></svg>