<svg id="Layer_1" data-name="Layer 1" xmlns="http://www.w3.org/2000/svg" viewBox="0 0 88 38"><defs><style>.cls-1{fill:#fff;}</style></defs><title>switch-right</title><path class="cls-1" d="M75,55a19,19,0,0,1,0,38H25a19,19,0,0,1,0-38Z" transform="translate(-6 -55)"/><path class="cls-1" d="M75,57H25a17,17,0,0,0,0,34H75a17,17,0,0,0,0-34Z" transform="translate(-6 -55)"/><path class="cls-1" d="M75,62A12,12,0,1,1,63,74,12,12,0,0,1,75,62Z" transform="translate(-6 -55)"/><path class="cls-1" d="M75,64A10,10,0,1,0,85,74,10,10,0,0,0,75,64Z" transform="translate(-6 -55)"/></svg>