<svg id="Layer_1" data-name="Layer 1" xmlns="http://www.w3.org/2000/svg" viewBox="0 0 307 309"><defs><style>.cls-1,.cls-2{fill:none;stroke:#fff;}.cls-1{stroke-linecap:round;stroke-width:4px;}.cls-2{stroke-width:3px;}</style></defs><title>tempo-background</title><line class="cls-1" x1="153.5" y1="33.03" x2="153.5" y2="267.02"/><path id="path4244" class="cls-2" d="M23.8,1.53H283.2c12.3,0,22.3,8.71,22.3,19.53V287.94c0,10.82-10,19.53-22.34,19.53H23.8c-12.3,0-22.3-8.73-22.3-19.53V21.06C1.5,10.24,11.5,1.53,23.8,1.53Z"/><path id="path4314" class="cls-2" d="M34.72,83.87H81c1.37,0,2.47,8.22,2.47,18.43s-1.1,18.48-2.47,18.48H34.72c-1.37,0-2.47-8.22-2.47-18.43S33.35,83.87,34.72,83.87Z"/><path id="path4256" class="cls-2" d="M63,48.65A15.36,15.36,0,1,1,47.61,33.29h0A15.35,15.35,0,0,1,63,48.65Z"/></svg>