<svg id="Layer_1" data-name="Layer 1" xmlns="http://www.w3.org/2000/svg" viewBox="0 0 479.37 155.03"><defs><style>.cls-1,.cls-2{fill:none;stroke:#fff;}.cls-1{stroke-linecap:round;stroke-width:4px;}.cls-2{stroke-width:3px;}.cls-3{fill:#fff;}</style></defs><title>tempo-background</title><line class="cls-1" x1="47.5" y1="77.54" x2="397.5" y2="77.54"/><path id="path4242" class="cls-2" d="M22.19,109.4H137.42c6.18,0,11.16,7.43,11.16,16.65s-5,16.66-11.16,16.66H22.19C16,142.71,11,135.28,11,126.05S16,109.4,22.19,109.4Z"/><path id="path4244" class="cls-2" d="M2,142.38V12.68C2,6.53,15.56,1.53,32.41,1.53H448c16.85,0,30.41,5,30.41,11.17V142.38c0,6.15-13.6,11.15-30.41,11.15H32.41C15.56,153.53,2,148.53,2,142.38Z"/><path id="path4256" class="cls-2" d="M388.36,22.18A15.36,15.36,0,1,1,373,37.53h0A15.36,15.36,0,0,1,388.36,22.18Z"/><path id="path4314" class="cls-2" d="M314.42,18.44h46.25c1.37,0,2.47,8.22,2.47,18.43s-1.1,18.48-2.47,18.48H314.42c-1.37,0-2.47-8.22-2.47-18.43S313.05,18.44,314.42,18.44Z"/><path id="path4316" class="cls-2" d="M252.68,18.47h46.25c1.37,0,2.46,8.22,2.46,18.43s-1.09,18.43-2.46,18.43H252.68c-1.37,0-2.47-8.22-2.47-18.43S251.31,18.47,252.68,18.47Z"/><path class="cls-3" d="M55.09,119.29H51v-1.48H61v1.48H56.85v12H55.09Z"/><path class="cls-3" d="M62,126.77a3.1,3.1,0,0,0,3.32,3.36,6.36,6.36,0,0,0,2.68-.5l.3,1.26a7.84,7.84,0,0,1-3.22.6c-3,0-4.76-2-4.76-4.88s1.72-5.22,4.54-5.22c3.16,0,4,2.78,4,4.56a6.64,6.64,0,0,1-.06.82Zm5.16-1.26c0-1.12-.46-2.86-2.44-2.86-1.78,0-2.56,1.64-2.7,2.86Z"/><path class="cls-3" d="M71,124.23c0-1,0-1.82-.08-2.62h1.54l.08,1.56h.06a3.34,3.34,0,0,1,3-1.78,2.86,2.86,0,0,1,2.74,1.94h0a4,4,0,0,1,1.08-1.26,3.3,3.3,0,0,1,2.14-.68c1.28,0,3.18.84,3.18,4.2v5.7H83.11v-5.48c0-1.86-.68-3-2.1-3a2.28,2.28,0,0,0-2.08,1.6,2.9,2.9,0,0,0-.14.88v6H77.07v-5.8c0-1.54-.68-2.66-2-2.66a2.62,2.62,0,0,0-2.32,2.62v5.84H71Z"/><path class="cls-3" d="M87.69,124.77c0-1.24,0-2.24-.08-3.16h1.58l.08,1.66h0a3.81,3.81,0,0,1,3.44-1.88c2.34,0,4.1,2,4.1,4.92,0,3.48-2.12,5.2-4.4,5.2a3.39,3.39,0,0,1-3-1.52h0v5.26H87.69Zm1.74,2.58a4,4,0,0,0,.08.72,2.72,2.72,0,0,0,2.64,2.06c1.86,0,2.94-1.52,2.94-3.74,0-1.94-1-3.6-2.88-3.6A2.81,2.81,0,0,0,89.55,125a2.85,2.85,0,0,0-.12.72Z"/><path class="cls-3" d="M107.83,126.37c0,3.58-2.48,5.14-4.82,5.14-2.62,0-4.64-1.92-4.64-5,0-3.24,2.12-5.14,4.8-5.14S107.83,123.41,107.83,126.37Zm-7.68.1c0,2.12,1.22,3.72,2.94,3.72s2.94-1.58,2.94-3.76c0-1.64-.82-3.72-2.9-3.72S100.15,124.63,100.15,126.47Z"/></svg>